<mxfile host="65bd71144e">
    <diagram id="1-8FDSwg0SrlSE5bOCEy" name="Page-1">
        <mxGraphModel dx="1086" dy="703" grid="1" gridSize="10" guides="1" tooltips="1" connect="1" arrows="1" fold="1" page="1" pageScale="1" pageWidth="850" pageHeight="1100" math="0" shadow="0">
            <root>
                <mxCell id="0"/>
                <mxCell id="1" parent="0"/>
                <mxCell id="18" value="" style="pointerEvents=1;verticalLabelPosition=bottom;shadow=0;dashed=0;align=center;html=1;verticalAlign=top;shape=mxgraph.electrical.miscellaneous.batteryStack;rotation=-90;strokeWidth=2;fontSize=14;" vertex="1" parent="1">
                    <mxGeometry x="110" y="170" width="100" height="60" as="geometry"/>
                </mxCell>
                <mxCell id="21" style="edgeStyle=none;rounded=0;html=1;exitX=0;exitY=0.57;exitDx=0;exitDy=0;exitPerimeter=0;entryX=1;entryY=0.5;entryDx=0;entryDy=0;strokeWidth=2;endArrow=none;endFill=0;fontSize=14;" edge="1" parent="1" source="19" target="18">
                    <mxGeometry relative="1" as="geometry">
                        <Array as="points">
                            <mxPoint x="160" y="120"/>
                        </Array>
                    </mxGeometry>
                </mxCell>
                <mxCell id="24" style="edgeStyle=none;rounded=0;html=1;exitX=1;exitY=0.57;exitDx=0;exitDy=0;exitPerimeter=0;entryX=1;entryY=0.5;entryDx=0;entryDy=0;entryPerimeter=0;strokeWidth=2;endArrow=none;endFill=0;fontSize=14;" edge="1" parent="1" source="19">
                    <mxGeometry relative="1" as="geometry">
                        <mxPoint x="290" y="280" as="targetPoint"/>
                        <Array as="points">
                            <mxPoint x="320" y="120"/>
                            <mxPoint x="320" y="280"/>
                        </Array>
                    </mxGeometry>
                </mxCell>
                <mxCell id="19" value="" style="verticalLabelPosition=bottom;shadow=0;dashed=0;align=center;html=1;verticalAlign=top;shape=mxgraph.electrical.opto_electronics.led_2;pointerEvents=1;flipV=0;flipH=0;strokeWidth=2;fontSize=14;" vertex="1" parent="1">
                    <mxGeometry x="190" y="80" width="100" height="70" as="geometry"/>
                </mxCell>
                <mxCell id="25" style="edgeStyle=none;rounded=0;html=1;exitX=0;exitY=0.5;exitDx=0;exitDy=0;exitPerimeter=0;entryX=0;entryY=0.5;entryDx=0;entryDy=0;strokeWidth=2;endArrow=none;endFill=0;fontSize=14;" edge="1" parent="1" target="18">
                    <mxGeometry relative="1" as="geometry">
                        <mxPoint x="190" y="280" as="sourcePoint"/>
                        <Array as="points">
                            <mxPoint x="160" y="280"/>
                        </Array>
                    </mxGeometry>
                </mxCell>
                <mxCell id="26" value="5V" style="text;html=1;strokeColor=none;fillColor=none;align=right;verticalAlign=middle;whiteSpace=wrap;rounded=0;strokeWidth=2;fontSize=14;" vertex="1" parent="1">
                    <mxGeometry x="80" y="150" width="40" height="100" as="geometry"/>
                </mxCell>
                <mxCell id="27" value="+" style="text;html=1;strokeColor=none;fillColor=none;align=center;verticalAlign=middle;whiteSpace=wrap;rounded=0;strokeWidth=2;fontSize=14;" vertex="1" parent="1">
                    <mxGeometry x="130" y="140" width="30" height="30" as="geometry"/>
                </mxCell>
                <mxCell id="28" value="-" style="text;html=1;strokeColor=none;fillColor=none;align=center;verticalAlign=middle;whiteSpace=wrap;rounded=0;strokeWidth=2;fontSize=14;" vertex="1" parent="1">
                    <mxGeometry x="130" y="230" width="30" height="30" as="geometry"/>
                </mxCell>
                <mxCell id="29" value="Output 1" style="text;html=1;strokeColor=none;fillColor=none;align=center;verticalAlign=middle;whiteSpace=wrap;rounded=0;strokeWidth=2;fontSize=14;" vertex="1" parent="1">
                    <mxGeometry x="190" y="50" width="100" height="30" as="geometry"/>
                </mxCell>
                <mxCell id="30" value="&lt;span style=&quot;font-size: 14px;&quot;&gt;220&amp;nbsp;Î©&lt;/span&gt;&amp;nbsp;" style="text;html=1;strokeColor=none;fillColor=none;align=center;verticalAlign=middle;whiteSpace=wrap;rounded=0;strokeWidth=2;fontSize=14;" vertex="1" parent="1">
                    <mxGeometry x="190" y="240" width="100" height="30" as="geometry"/>
                </mxCell>
                <mxCell id="31" value="" style="pointerEvents=1;verticalLabelPosition=bottom;shadow=0;dashed=0;align=center;html=1;verticalAlign=top;shape=mxgraph.electrical.resistors.resistor_2;strokeWidth=2;fontSize=14;flipH=1;" vertex="1" parent="1">
                    <mxGeometry x="190" y="270" width="100" height="20" as="geometry"/>
                </mxCell>
                <mxCell id="32" value="&lt;div style=&quot;font-size: 12px;&quot;&gt;TEJ3M - Unit 4 - 03&lt;/div&gt;&lt;div style=&quot;font-size: 12px;&quot;&gt;Youngwook Go&lt;/div&gt;&lt;div style=&quot;font-size: 12px;&quot;&gt;2023. Nov. 8&lt;/div&gt;&lt;div style=&quot;font-size: 12px;&quot;&gt;Turns a LED&lt;/div&gt;" style="text;html=1;strokeColor=none;fillColor=none;align=center;verticalAlign=middle;whiteSpace=wrap;rounded=0;strokeWidth=2;fontSize=12;" vertex="1" parent="1">
                    <mxGeometry x="40" y="40" width="120" height="80" as="geometry"/>
                </mxCell>
            </root>
        </mxGraphModel>
    </diagram>
</mxfile>